<mxfile host="Electron" modified="2024-01-04T09:37:35.059Z" agent="Mozilla/5.0 (Windows NT 10.0; Win64; x64) AppleWebKit/537.36 (KHTML, like Gecko) draw.io/21.6.1 Chrome/112.0.5615.204 Electron/24.6.1 Safari/537.36" etag="ZIEcyepidxVBp2qCkTo2" version="21.6.1" type="device">
  <diagram name="Page-1" id="o92-wu76o9Jx_vne_PsG">
    <mxGraphModel dx="780" dy="504" grid="1" gridSize="10" guides="1" tooltips="1" connect="1" arrows="1" fold="1" page="1" pageScale="1" pageWidth="827" pageHeight="1169" math="0" shadow="0">
      <root>
        <mxCell id="0" />
        <mxCell id="1" parent="0" />
        <mxCell id="ATOiKzRASIgLb03BFFi4-1" value="Structure of Main Loop" style="text;html=1;strokeColor=default;fillColor=default;align=center;verticalAlign=middle;whiteSpace=wrap;rounded=0;" vertex="1" parent="1">
          <mxGeometry x="80" y="140" width="120" height="40" as="geometry" />
        </mxCell>
        <mxCell id="ATOiKzRASIgLb03BFFi4-2" value="&lt;h1 style=&quot;font-size: 18px;&quot;&gt;&lt;font style=&quot;font-size: 18px;&quot;&gt;1 - initiating Pygame&lt;/font&gt;&lt;/h1&gt;&lt;div&gt;&lt;span style=&quot;font-size: 18px;&quot;&gt;&lt;b&gt;2 - Loading textures&lt;/b&gt;&lt;/span&gt;&lt;/div&gt;&lt;p style=&quot;font-size: 18px;&quot;&gt;&lt;b&gt;&lt;font style=&quot;font-size: 18px;&quot;&gt;3 - Creating level&lt;/font&gt;&lt;/b&gt;&lt;/p&gt;&lt;blockquote style=&quot;margin: 0 0 0 40px; border: none; padding: 0px;&quot;&gt;&lt;p style=&quot;&quot;&gt;&lt;b style=&quot;&quot;&gt;&lt;font style=&quot;font-size: 12px;&quot;&gt;&amp;nbsp;&lt;/font&gt;&lt;font size=&quot;1&quot; style=&quot;&quot;&gt;==&amp;gt; Initializing level container&lt;/font&gt;&lt;/b&gt;&lt;/p&gt;&lt;p style=&quot;&quot;&gt;&lt;b style=&quot;&quot;&gt;&lt;font size=&quot;1&quot; style=&quot;&quot;&gt;&amp;nbsp;==&amp;gt; Populating&lt;/font&gt;&lt;/b&gt;&lt;/p&gt;&lt;/blockquote&gt;&lt;blockquote style=&quot;margin: 0 0 0 40px; border: none; padding: 0px;&quot;&gt;&lt;/blockquote&gt;&lt;b style=&quot;background-color: initial; font-size: 18px;&quot;&gt;4 - Update Loop&lt;br&gt;&lt;/b&gt;&lt;br&gt;&lt;blockquote style=&quot;margin: 0 0 0 40px; border: none; padding: 0px;&quot;&gt;&lt;font size=&quot;1&quot;&gt;&lt;b style=&quot;&quot;&gt;==&amp;gt; Command update and draw of each game object&lt;/b&gt;&lt;/font&gt;&lt;/blockquote&gt;" style="text;html=1;strokeColor=default;fillColor=default;spacing=5;spacingTop=-20;whiteSpace=wrap;overflow=hidden;rounded=0;" vertex="1" parent="1">
          <mxGeometry x="80" y="200" width="330" height="300" as="geometry" />
        </mxCell>
      </root>
    </mxGraphModel>
  </diagram>
</mxfile>
